<svg xmlns:xlink="http://www.w3.org/1999/xlink" xmlns="http://www.w3.org/2000/svg" viewBox="0 0 32 32" aria-hidden="true" role="presentation" focusable="false" style="display: block; height: 20px; width: 20px; fill: currentcolor;" width="32"  height="32" ><path d="M8 2v.5A3.5 3.5 0 0 0 11.3 6h.7v2h-.5a5.48 5.48 0 0 1-3.49-1.25 3.5 3.5 0 0 0 3.3 3.24l.19.01h.5v2h-.5A5.48 5.48 0 0 1 8 10.74v3.28c3.19.16 6.25 1.07 9 2.63v-3.57l-.88.7-1.24-1.56 2.12-1.7V7h2v1.92l3.38-2.7a1 1 0 0 1 .2-.12l.13-.06.05-.01.05-.01.08-.01h.3l.1.03.1.04.06.02.07.05.1.07 7.5 6-1.24 1.56-.88-.7v3.55c.34.09.67.18 1 .29v2.1a17.97 17.97 0 0 0-18.4 3.92c1.21.28 2.38.63 3.56 1.05l.9.33 1.04.4.81.34 1.46.62 2.03.9.82.35.75.32.37.14.68.27.65.25.6.2c1.57.54 2.76.78 3.95.86l.44.03H30v2h-.15l-.48-.02c-1.85-.1-3.67-.5-6.41-1.59l-.74-.3-.79-.32-.83-.37-2.6-1.13-1.22-.52-.58-.24-.8-.3-.48-.19c-3.75-1.37-7.2-1.98-12.34-2.02H2v-2c2.79 0 5.12.15 7.26.49a20.03 20.03 0 0 1 6.02-4.5A18.14 18.14 0 0 0 2 16.7v-2.07a20.1 20.1 0 0 1 4-.6v-3.29c-.9.74-2.03 1.2-3.28 1.26H2v-2h.5A3.5 3.5 0 0 0 6 6.75c-.9.74-2.04 1.2-3.28 1.25H2V6h.5A3.5 3.5 0 0 0 6 2.7V2zm15 6.28-4 3.2v5.15c.98-.25 1.98-.43 3-.53V13h2v3c1.01 0 2.01.08 3 .22v-4.74z" fill="#222222"></path></svg>